<?xml version="1.0" encoding="UTF-8"?>
<svg version="1.1" id="china_logo" xmlns="http://www.w3.org/2000/svg" xmlns:xlink="http://www.w3.org/1999/xlink" x="0px" y="0px" viewBox="0 0 372.1 189" style="enable-background:new 0 0 372.1 189;" xml:space="preserve">
<g>
	<path class="st0" d="M129.5,131.4c0.3,0,0.7-0.1,1-0.1c12-1.1,19.6-8.2,19.6-16.9c0-8.6-7.4-15.7-19.3-16.9
		c-1.1-0.1-2.3-0.2-3.5-0.2c-1.1,0-66.5,0-92,0c-1,0-2,0.1-2.9,0.2c-12.6,1.7-12.7,14-12.7,14v54.1c0,0,0.1,0,0.3,0h0
		c0.8,0,3.1,0,8.5,0c30.7,0,29.7-19.7,29.7-19.7l0-31.4c0,0-1-5.9,9.1-5.9c12.9,0,34.9,0,35.1,0c7,0,10.4,3.9,10.4,8.7
		c0,4.8-3.4,8.7-10.4,8.7l-0.1,0l0,0c0,0-8.2,0-20.6,0c-15.1,0-16.8,11.2-16.8,11.2s37.5,0,37.5,0c7,0,10.4,3.9,10.4,8.7
		c0,4.8-3.4,8.7-10.4,8.7c-0.2,0-14.3,0-31.9,0c-17.6,0-18.7,11.2-18.7,11.2h75.6v0c13.8,0,22.7-7.7,22.7-17.1c0-9-8.1-16.4-20.9-17
		c-0.6,0-1.2-0.1-1.8-0.1v0C128.1,131.4,128.8,131.4,129.5,131.4z"></path>
	<path class="st0" d="M337.6,97.3c-1.5,0-2.9,0.1-4.2,0.2c-18.9,1.6-19.6,13.7-19.6,13.7v54.5h11.2c0,0,12.5-0.1,20.6-5.7
		c3.9-2.7,6.8-6.6,6.8-12.5c0-17.3,0-47.5,0-50c0-0.1,0-0.2,0-0.2S341.2,97.3,337.6,97.3z"></path>
	<path class="st0" d="M214.6,108.6c11.3,0,84,0,84,0s0-11.2-18.6-11.2c-18.6,0-101.2,0-101.2,0s-13.1,0.1-13.1,13.2c0,5.1,0,44,0,44
		s0,11.2,18,11.2c18,0,65.6,0,90.3,0c24.7,0,24.5-15.1,24.5-15.1V126c0,0-47.3,0-59.8,0c-8.6,0-13.1,2.3-15.5,4.9
		c-2.8,3-2.7,6.3-2.7,6.3H248v0c6.8,0.2,10,4,10,8.7c0,4.7-3.1,8.5-10,8.7c0,0-22.3,0-33.5,0c-11.2,0-10.3-7.3-10.3-7.3v-17.7v-14.1
		C204.2,115.6,203.3,108.6,214.6,108.6z"></path>
</g>
<path class="st0" d="M30,52.7h11V21.4c1.3-0.8,2.6-1.6,3.9-2.4V9.8c-7.1,4.5-14.5,8.4-22.1,11.7v9.1c2.3-1,4.8-2.1,7.3-3.3L30,52.7z
	"></path>
<path class="st0" d="M71.4,12.5h-11v15.6c-6.3,1.3-11.3,2.1-14.1,2.5v8c2.3-0.2,7.4-0.7,14.1-2v5c0,0-0.2,10.3,9.9,10.3H95v-7.9
	H76.1c-3.5,0-4.7-1.4-4.7-6.4V34c8.1-2.1,16.1-4.9,23.7-8.5v-8.4c-7.7,3.4-15.6,6.2-23.7,8.3V12.5z"></path>
<polygon class="st0" points="64.3,51.8 53.4,51.8 53.4,59.8 22.8,59.8 22.8,67.7 53.4,67.7 53.4,83.9 64.3,83.9 64.3,67.7
	95.1,67.7 95.1,59.8 64.3,59.8 "></polygon>
<path class="st0" d="M149.9,35.5h29.7v-7.9h-30V12.5h-11v15.1h-29.9v7.9h29.6c-4.7,15.4-16.9,31.1-30.4,39.4v9
	c15.7-7.8,29-20.3,36.2-36.4c7.2,16,20.5,28.4,36.1,36.3v-9C166.8,66.5,154.7,50.9,149.9,35.5"></path>
<path class="st0" d="M254.1,55.9h11.5v-6h-10V22.4h10v-6h-10v-4.3h-10.6v4.3h-29.6v-4.3h-10.6v4.3h-10v6h10v27.4h-10v6h11.7
	c-3.4,3.8-7.3,7.9-11.7,10.6v9.3c9.2-4.6,17.2-11.5,23.2-19.9h24.5c6,8.4,14,15.2,23.2,19.9v-9.3C261.4,63.8,257.5,59.6,254.1,55.9
	 M245.1,49.8h-29.6v-4.9h25.4l3.3-6h-28.7v-5h25.4l3.3-6h-28.7v-5.5h29.6L245.1,49.8z"></path>
<polygon class="st0" points="235.5,69.2 247.8,69.2 247.8,63.1 235.5,63.1 235.5,58.1 225,58.1 225,63.1 212.5,63.1 212.5,69.2
	225,69.2 225,77.1 194.9,77.1 194.9,83.2 265.8,83.2 265.8,77.1 235.5,77.1 "></polygon>
<path class="st0" d="M340.2,34.5H322V21.6H312v12.9h-18.3v6H311c-2.5,11.9-10.2,20-17.4,26.1v8.5c10.1-6.7,18.1-14,23.2-25
	c5.1,11,13.2,18.3,23.2,25v-8.5c-7.2-6.1-13.9-14.3-17.4-26.1h17.4L340.2,34.5z"></path>
<path class="st0" d="M342.2,13.1h-60.9v68.1l0,0v1.5h56.7l3.3-6h-49.4V19.2H342v63.6h10.6V22.5C352.6,12.2,342.2,13.1,342.2,13.1"></path>
</svg>
