<svg width="100" height="40" viewBox="0 0 100 40" fill="none" xmlns="http://www.w3.org/2000/svg">
<path d="M94.9627 12.845C95.0645 12.6679 94.9578 12.5352 94.7348 12.5352C93.5758 12.5352 92.0579 12.5401 90.8553 12.5401C90.5691 12.5401 90.4188 12.5745 90.283 12.845C89.8369 13.7106 84.4104 21.9583 83.4018 23.5567C83.232 23.8026 83.0235 23.7682 82.9993 23.4879C82.8974 22.5386 82.0876 21.4419 80.8122 20.9206C79.8423 20.5222 78.887 20.4484 77.9025 20.5812C76.118 20.8222 74.5274 21.7813 73.1307 22.8534C71.0261 24.4764 69.2076 26.5814 66.8605 28.1404C65.5803 28.9863 63.8248 29.7241 62.6512 28.6224C61.5892 27.624 61.7104 25.4059 63.335 23.6895C63.5047 23.5075 63.7132 23.66 63.6793 23.8223C63.5241 24.5993 63.7132 25.3715 64.2952 25.9125C65.0032 26.5568 66.0167 26.6305 66.8847 26.1977C67.908 25.6813 68.5093 24.6879 68.6887 23.5616C68.9603 21.8108 67.6315 20.2665 65.9682 20.1435C64.6152 20.0452 63.3204 20.5222 62.0596 21.5796C61.4292 22.1108 61.0655 22.5042 60.5223 23.296C60.3914 23.4879 60.1829 23.5075 60.1926 23.2223C60.2556 20.9796 59.3439 19.7206 57.5157 19.6763C56.0997 19.6419 54.5818 20.4238 53.4034 21.378C52.1087 22.4304 50.9788 23.8321 49.7664 25.1453C49.6161 25.3076 49.4851 25.2977 49.4415 24.983C49.4027 23.4977 49.039 22.0616 48.3601 21.0386C48.1225 20.6845 47.6181 20.5075 47.1914 20.7484C46.9974 20.8566 46.3136 21.1763 45.819 21.5796C45.5717 21.7862 45.4795 22.0813 45.5862 22.4649C46.2409 24.683 46.0954 27.206 45.208 29.3355C44.3933 31.288 42.8075 33.0487 40.9454 33.6438C39.7185 34.0373 38.4431 33.8454 37.6526 32.7438C36.5712 31.2241 37.0077 28.5732 38.6225 26.3797C40.0482 24.4469 42.1092 23.2174 44.1654 22.4255C44.4078 22.3321 44.4563 22.1747 44.3884 21.9632C44.2769 21.619 44.0975 21.1517 44.0247 20.9403C43.8356 20.4337 43.307 20.3501 42.6621 20.4189C41.1684 20.596 39.8203 21.1124 38.4867 21.8354C35 23.7288 33.2542 27.3929 32.488 29.3552C32.1195 30.2995 31.8043 30.8847 31.3969 31.4061C30.8489 32.1044 30.1555 32.7438 28.8946 33.87C28.7783 33.9733 28.6958 34.1897 28.7928 34.3864C28.9237 34.6569 29.5784 35.5963 29.7627 35.6799C29.9664 35.7832 30.2088 35.6406 30.301 35.5717C31.1836 34.9668 32.2407 34.0028 32.7596 33.3487C32.939 33.1274 33.1282 33.2208 33.2251 33.5602C33.7101 35.3061 34.9709 36.7324 36.7167 37.3275C39.9124 38.4193 43.2294 36.8357 45.7317 34.0815C47.3223 32.3307 47.8945 31.2044 48.5056 30.4372C49.5385 29.1388 51.5752 26.2322 54.0048 24.3682C54.8971 23.6797 55.9494 23.1583 56.478 23.5026C56.9047 23.7829 57.0405 24.4321 56.3567 25.6912C53.8835 30.2749 50.2416 35.6602 49.5724 36.9685C49.4512 37.1947 49.5579 37.3718 49.7907 37.3718C51.0854 37.3668 52.3705 37.3668 53.5441 37.3668C53.7381 37.357 53.8253 37.2685 53.9272 37.1258C55.8281 34.111 57.6127 31.2388 59.5282 28.2732C59.6349 28.0961 59.7319 28.2339 59.7367 28.3125C59.7755 29.0011 59.9453 29.9454 60.3478 30.5601C61.0703 31.7011 62.0984 32.193 63.238 32.2028C64.1448 32.2126 64.6007 32.0749 65.5803 31.7061C66.3756 31.4061 67.0157 31.0126 67.5006 30.6585C67.7867 30.4569 67.8352 30.7962 67.8304 30.8454C67.3891 33.2405 67.9322 36.0734 70.2793 37.2537C73.0871 38.6554 76.1713 36.6832 77.9462 34.9028C78.1208 34.7307 78.305 34.7504 78.3244 35.1192C78.3632 35.798 78.6639 36.6045 79.2216 37.1701C80.7103 38.6849 83.7073 38.0849 86.7187 35.7193C88.6536 34.2045 90.6758 32.0651 92.5041 29.8027C92.5719 29.7142 92.6204 29.5765 92.4895 29.4339C92.2131 29.1388 91.8106 28.7994 91.5342 28.5388C91.4081 28.4306 91.2238 28.4601 91.1171 28.5437C89.2453 30.3487 87.5577 32.4094 85.1184 34.1159C84.2989 34.6963 82.9847 35.1684 82.3979 34.3619C82.17 34.0471 82.1943 33.6143 82.4222 33.0438C83.1253 31.2438 94.3808 13.8729 94.9627 12.845ZM80.0896 27.4125C80.1139 27.5453 80.2836 27.6732 80.4533 27.7371C80.5115 27.7568 80.5455 27.8011 80.4776 27.9437C79.9975 28.9814 79.561 29.5814 78.9597 30.4864C78.4069 31.3224 77.7862 31.9716 77.0345 32.5962C75.8997 33.5504 74.3237 34.5832 73.0192 33.8897C72.4421 33.5848 72.19 32.7635 72.1997 32.0995C72.2288 30.2306 73.0483 28.3076 74.5613 26.424C76.4089 24.1174 78.4505 22.9223 79.789 23.5764C81.1759 24.2452 80.7346 25.8731 80.1139 27.1519C80.0702 27.2502 80.0654 27.3338 80.0896 27.4125Z" fill="#01095C"/>
<path d="M13.3573 37.3018C9.16262 37.3313 5.46739 34.705 5.04549 30.1508C4.80787 27.6278 5.51103 25.3802 6.92221 23.531C8.1685 21.8834 10.2828 20.5113 12.0723 20.1768C12.6542 20.0686 13.4349 20.1375 13.7598 20.526C14.269 21.126 14.1187 21.7801 13.6144 22.0457C12.2517 22.7539 10.6077 23.9638 9.79789 25.6114C9.13838 26.9589 9.00744 28.5868 10.0113 30.1311C11.694 32.7132 16.3931 32.782 20.7575 28.6655C21.8389 27.6573 22.8039 26.6934 23.7884 25.5474C25.7136 23.3195 26.3489 22.5031 28.9093 18.908C28.9384 18.8686 28.9481 18.8096 28.9336 18.785C28.9142 18.7407 28.8754 18.726 28.8026 18.7211C27.0957 18.7702 25.6069 19.2866 24.1618 20.3834C23.7447 20.6932 23.1483 20.649 22.8815 20.2408C22.5906 19.7834 22.7991 19.1834 23.2792 18.8489C25.6069 17.2063 28.148 16.9112 30.7424 16.4686C30.7424 16.4686 30.9218 16.4784 31.0722 16.2767C32.139 14.8898 32.944 13.6406 34.0788 12.239C35.2232 10.8176 36.7023 9.50939 37.8322 8.53068C39.4082 7.1536 40.4169 6.6913 41.445 6.12571C41.7166 5.98308 41.411 5.81095 41.3286 5.81095C35.5918 4.71912 29.6319 3.3027 23.9339 5.44209C19.9913 6.9372 18.2601 10.1094 19.0942 12.2291C19.6858 13.7341 21.6352 13.9751 23.4635 13.0701C24.9813 12.3176 26.3828 11.1029 27.3769 9.5389C27.9346 8.67331 29.1082 9.29791 28.4729 10.8029C26.8047 14.7767 23.6186 17.9292 19.7391 18.062C16.4367 18.1702 14.3078 15.7062 14.3127 12.6668C14.3272 6.67163 20.9078 2.72728 27.8182 2.13218C36.1446 1.43381 44.0297 3.6814 52.2979 4.69945C58.6312 5.47652 64.7075 5.49619 71.0699 4.01091C71.8215 3.8437 72.3501 4.33059 72.3016 5.10274C72.2386 6.21916 71.39 7.29131 69.2902 8.45199C66.9043 9.77989 64.4117 10.1783 61.8027 10.2028C55.5034 10.2569 49.6308 7.76345 43.5593 6.42572C43.569 6.69621 43.6369 7.0159 43.4138 7.18803C40.0532 9.70612 37.0127 12.2635 34.9759 15.8538C34.908 15.9374 34.9468 16.0161 35.0632 16.0062C36.8332 15.9128 38.4238 15.8636 40.0726 15.7308C40.3587 15.7062 40.3733 15.6325 40.3442 15.421C40.1987 14.1816 40.5527 12.775 41.6293 11.8012C42.7252 10.8029 44.1025 10.6897 45.0141 11.4078C46.0519 12.2291 45.9598 13.6996 45.3924 14.8062C44.8153 15.9276 43.8648 16.5276 42.9483 16.8177C42.9483 16.8177 42.7592 16.862 42.7834 17.0391C42.8222 17.3243 44.0685 18.0227 44.1752 18.2096C44.277 18.3866 44.2237 18.662 44.0346 18.8735C43.9036 19.026 43.6951 19.1686 43.4332 19.1637C43.2199 19.1588 43.0889 19.085 42.8174 18.9325C42.2597 18.6227 41.5614 18.121 41.091 17.526C40.931 17.3243 40.8534 17.3194 40.4557 17.344C38.6711 17.4473 35.8827 17.7227 33.9963 17.9588C33.5405 18.0178 33.4726 18.1014 33.3756 18.2637C30.3641 23.2949 27.1539 28.7246 23.6283 32.3541C19.8458 36.2493 16.6986 37.2772 13.3573 37.3018ZM42.0366 14.939C42.0851 15.1997 42.1821 15.2489 42.2985 15.2243C42.8707 15.1062 43.5011 14.6292 43.8697 14.0783C44.2091 13.5767 44.3692 12.8488 44.0297 12.5586C43.7291 12.298 43.2441 12.3717 42.8804 12.6963C42.1627 13.3406 41.9396 14.2603 42.0366 14.939Z" fill="#01095C"/>
</svg>
