<?xml version="1.0" encoding="UTF-8"?>
<svg width="117px" height="34px" viewBox="0 0 117 34" version="1.1" xmlns="http://www.w3.org/2000/svg" xmlns:xlink="http://www.w3.org/1999/xlink">
    <title>logo备份</title>
    <defs>
        <polygon id="path-1" points="0 0 77.7311712 0 77.7311712 25.6365835 0 25.6365835"></polygon>
    </defs>
    <g id="页面-1" stroke="none" stroke-width="1" fill="none" fill-rule="evenodd">
        <g id="编组">
            <g id="编组-17">
                <polygon id="Fill-1" fill="#9D0D15" points="17.0316797 0 0 16.9977045 17.0316797 34 28.3882236 22.6501111 17.0341886 22.6501111 17.0341886 11.3169169 28.3882236 11.3169169"></polygon>
                <polygon id="Fill-2" fill="#9C9D9F" points="29.7702103 12.7165584 34.0641957 16.9979132 29.7702103 21.285111"></polygon>
            </g>
            <g transform="translate(39.268829, 4.138782)">
                <mask id="mask-2" fill="white">
                    <use xlink:href="#path-1"></use>
                </mask>
                <g id="Clip-4"></g>
                <path d="M30.9147713,3.4959945 C30.9316168,5.10655565 30.8378658,6.61868623 30.6638007,8.18982259 L30.5702155,8.98103679 L37.0971234,8.98103679 L37.0971234,10.3529234 L30.2264959,10.3529234 C28.926397,13.6238665 25.0422034,14.6824403 21.9980865,15.5790709 L21.7392994,15.6555762 L20.2502662,13.9339357 C22.6981833,13.6638468 26.4881915,13.0674805 28.33684,10.5978225 L28.5095708,10.3529234 L20.2640651,10.3529234 L20.2640651,8.98103679 L28.8524541,8.98103679 C29.1257723,7.30056389 29.2964536,5.80187002 29.2246958,4.03466247 L29.1957555,3.4959945 L30.9147713,3.4959945 Z M15.4560894,5.21012239 L15.4560894,8.29571953 L13.3958629,8.29571953 L14.083302,8.63837816 L13.3958629,9.32494752 L18.2045913,9.32494752 L18.2045913,10.695582 L5.49491304,10.695582 L5.15161165,11.381734 L8.58671633,11.381734 C8.51813968,12.3437659 8.63522176,13.6939494 8.16313008,14.5691688 C8.04395725,14.7895388 7.83780915,14.9744326 7.54343134,15.1280238 C7.26976806,15.2674887 6.67686558,15.4268687 5.76307947,15.5848262 L5.52794691,15.6242736 L4.46459071,14.2315186 L4.8918501,14.2310988 C5.71561106,14.2285289 6.34196607,14.2102329 6.53945248,14.0800142 C7.01730177,13.7683371 7.09360802,13.1159696 7.1275153,12.5887281 L7.13531665,12.459794 L4.8078921,12.4097099 C4.27594917,13.7158473 3.37975088,14.656957 2.26684492,15.4488561 L2.02510188,15.6163436 L0.097429019,14.6250961 C1.56732023,14.2179078 2.33004186,13.718766 2.97774068,12.6115232 L3.09096699,12.4097099 L0.342046942,12.4097099 L0.342046942,11.381734 L3.43468653,11.381734 L3.77798793,10.695582 L-4.54747351e-13,10.695582 L-4.54747351e-13,9.32494752 L4.8078921,9.32494752 L4.12128932,8.63837816 L4.8078921,8.29571953 L2.74808375,8.29571953 L2.74808375,5.21012239 L15.4560894,5.21012239 Z M45.0861776,0.0681143587 L45.0552344,1.43833151 L51.9572232,1.43833151 L51.9572232,0.0681143587 L53.6737302,0.0681143587 L53.6737302,1.43833151 L56.7659516,1.43833151 L56.7659516,2.80980077 L53.6737302,2.80980077 L53.6737302,7.95343653 L57.1096712,7.95343653 L57.1096712,9.32490579 L52.3001065,9.32490579 C54.0539483,10.8981821 55.3465921,11.4993047 57.4607087,11.9178511 L57.7841476,11.9793624 L56.3327479,13.4864761 L55.9651938,13.3333022 C54.9947134,12.9693579 53.9978018,12.5549584 53.0126374,11.9019141 L52.643826,11.6454685 L52.643826,12.7523268 L49.2087213,12.7523268 L49.2087213,14.2485889 L56.0772581,14.2485889 L56.0772581,15.6200582 L40.2774492,15.6200582 L40.2774492,14.2485889 L47.4905418,14.2485889 L47.4905418,12.7523268 L43.7117175,12.7523268 L43.7117175,11.3816923 C42.9493698,11.9805549 42.1731975,12.4861997 41.3049932,12.9514561 L40.8628596,13.1809631 L40.5321027,13.351249 L38.8155957,11.9313652 C40.7986845,11.5031462 41.9253551,10.8891306 43.4531545,9.55416693 L43.7117175,9.32490579 L39.5904282,9.32490579 L39.5904282,7.95343653 L43.3692524,7.95343653 L43.3692524,2.80980077 L40.2774492,2.80980077 L40.2774492,1.43833151 L43.3416545,1.43833151 L43.3692524,0.0681143587 L45.0861776,0.0681143587 Z M30.8738762,11.3816506 L36.7125088,14.151718 L35.3551929,15.6200164 L29.7427797,12.6471085 L30.8738762,11.3816506 Z M16.8296713,11.3816923 L16.8296713,15.6158845 L15.1119099,15.6158845 L15.1119099,14.9297325 L11.6776415,14.9297325 L11.6776415,15.6158845 L9.95988009,15.6158845 L9.95988009,11.3816923 L16.8296713,11.3816923 Z M69.4106075,0.0678222015 C69.4106075,0.0678222015 69.334086,0.213483422 69.2140769,0.478929084 C70.6608262,3.49125928 74.3668558,4.79169789 77.4447555,5.34268891 L77.7313802,5.39217804 L76.4949098,7.23235088 C75.7353398,6.92934216 75.0028189,6.58994421 74.2685927,6.2433858 L73.5327331,5.89552312 L73.5327331,6.92433375 L69.0677243,6.92433375 L69.0677243,8.9807029 L74.5638918,8.9807029 L74.5638918,10.3530069 L69.0677243,10.3530069 L69.0677243,14.2403668 L70.441348,14.2403668 L71.7677207,10.7578533 L73.6560875,11.3450892 L71.815808,14.2403668 L76.6228638,14.2403668 L76.6228638,15.6122534 L60.1364521,15.6122534 L60.1364521,14.2403668 L67.3495447,14.2403668 L67.3495447,10.3530069 L61.8529591,10.3530069 L61.8537954,8.98028553 L67.3495447,8.9807029 L67.3495447,6.92433375 L63.2290917,6.92433375 L63.1768229,6.22774757 C61.7977822,7.07354259 60.7452591,7.52878263 60.6524244,7.56842057 L60.6457592,7.57125321 L59.0802044,6.23734702 C62.1030509,5.24133135 65.4247232,3.59894122 66.8772807,0.374752606 L67.0079159,0.0678222015 L69.4106075,0.0678222015 Z M15.1119099,12.4109203 L11.6776415,12.4109203 L11.6776415,13.9017566 L15.1119099,13.9017566 L15.1119099,12.4109203 Z M64.3888315,10.7037624 L66.0313259,12.9496164 L64.3110556,13.6249168 L62.7856433,11.3460909 L64.3014381,10.7421602 C64.3298723,10.7296392 64.359561,10.719205 64.3888315,10.7037624 L64.3888315,10.7037624 Z M50.5823451,9.32490579 L45.7736166,9.32490579 C45.0255458,10.0995397 44.4317723,10.8754257 43.8823229,11.2919583 C44.8583553,11.3935177 45.8596511,11.3585632 46.8465245,11.3440906 L47.4366004,11.3391208 L47.4366004,9.67257282 L48.0767885,9.67257282 L49.2087213,9.66672968 L49.2087213,11.3816923 L52.3360674,11.3816923 C51.7071693,10.8290979 50.9728974,9.96932104 50.5823451,9.32490579 Z M12.021821,8.29571953 L6.18193398,8.29571953 L6.87020936,9.32494752 L11.3352182,9.32494752 L12.021821,8.29571953 Z M23.4009868,5.89539791 L26.6416516,7.58448375 L25.5113914,8.80110971 L22.3263406,7.04524508 L23.4009868,5.89539791 Z M51.9572232,6.9246259 L45.0861776,6.9246259 L45.0861776,7.95343653 L51.9572232,7.95343653 L51.9572232,6.9246259 Z M13.7395824,6.23935038 L4.46459071,6.23935038 L4.46459071,7.26732627 L13.7395824,7.26732627 L13.7395824,6.23935038 Z M24.9993245,3.70225747 L28.2776228,5.59668807 L27.1114017,6.84586868 L23.9083704,4.86963407 L24.9993245,3.70225747 Z M51.9572232,4.86783939 L45.0861776,4.86783939 L45.0861776,5.89581528 L51.9572232,5.89581528 L51.9572232,4.86783939 Z M68.3016729,1.74814333 C67.2228452,3.17399877 65.8272723,4.41421709 64.5694754,5.33059631 L64.2581596,5.55286449 L72.5019926,5.55286449 C70.8293915,4.5223844 69.4114438,3.3754588 68.3016729,1.74814333 Z M29.8831527,0.0679891484 L30.2264541,1.4382063 L36.7533621,1.4382063 L36.7533621,4.86771418 L35.036437,4.86771418 L35.036437,2.80967556 L22.3263406,2.80967556 L22.3263406,4.86771418 L20.6085792,4.86771418 L20.6085792,1.4382063 L28.1649732,1.4382063 C28.0820121,1.03686582 27.9926283,0.736761966 27.8963936,0.363949376 L27.8229262,0.0679891484 L29.8831527,0.0679891484 Z M9.95975464,8.08242362e-13 L9.95975464,1.09558941 L17.1741017,1.09558941 L17.1741017,2.46705866 L9.95975464,2.46705866 L9.95975464,3.15321066 L16.1433612,3.15321066 L16.1433612,4.52384518 L2.06089555,4.52384518 L2.06089555,3.15321066 L7.90036443,3.15321066 L7.90036443,2.46705866 L1.02973692,2.46705866 L1.02973692,1.09558941 L7.90036443,1.09558941 L7.90036443,8.08242362e-13 L9.95975464,8.08242362e-13 Z M51.9572232,2.80980077 L45.0861776,2.80980077 L45.0861776,3.83861139 L51.9572232,3.83861139 L51.9572232,2.80980077 Z" id="形状结合" fill="#1A171B" mask="url(#mask-2)"></path>
                <path d="M75.201111,19.875244 L75.201111,21.8435486 C74.872863,21.4712569 74.2979064,21.2859458 73.4754047,21.2859458 C72.6913729,21.2859458 72.0633112,21.4787695 71.5928921,21.8635822 C71.1208004,22.2496471 70.8866362,22.7893031 70.8866362,23.4800462 C70.8866362,24.1236267 71.097384,24.5485067 71.5243154,24.9470925 C71.9520832,25.3427568 72.5910168,25.5430932 73.4444616,25.5430932 C74.3338673,25.5430932 74.9585838,25.3047764 75.3219564,24.830647 L75.3219564,25.540589 L76.7511941,25.6365835 L76.7511941,19.875244 L75.201111,19.875244 Z M75.201111,23.7154414 C75.201111,24.144495 75.0639577,24.4504253 74.7888148,24.626137 C74.5094904,24.7993445 74.2038225,24.8890785 73.8634482,24.8890785 C72.9853326,24.8890785 72.5466929,24.4571032 72.5466929,23.4007464 C72.5466929,22.412003 72.9790603,21.9199268 73.8488129,21.9199268 C74.1615894,21.9199268 74.4660028,22.0059045 74.761635,22.179112 C75.0555947,22.3539889 75.201111,22.6557456 75.201111,23.0893903 L75.201111,23.7154414 Z M68.5270559,21.4819415 C68.2167884,21.3462971 67.8019833,21.2853615 67.2930944,21.2853615 C66.3969983,21.2853615 65.7772996,21.5274345 65.4285622,22.0274407 L65.4285622,21.2932914 L63.983853,21.2932914 L63.983853,25.5729767 L65.5485714,25.5729767 L65.5485714,23.2273719 C65.5485714,22.7265311 65.6556178,22.3934719 65.8718016,22.2244381 C66.090076,22.0566564 66.3928168,21.9731829 66.7808603,21.9731829 C67.1567774,21.9731829 67.3984683,22.039127 67.5142959,22.1705977 C67.6301235,22.3033205 67.6882464,22.5516541 67.6882464,22.9189374 L67.6882464,25.5729767 L69.2425111,25.5729767 L69.2425111,22.873027 C69.2425111,22.4619201 69.2023687,22.161833 69.1208294,21.9715134 C69.0367811,21.7816113 68.8398324,21.6184206 68.5270559,21.4819415 M60.3420984,23.2850938 C60.3420984,23.8931981 60.2513598,24.3097308 60.0661192,24.5346918 C59.8804605,24.7588181 59.556394,24.8715073 59.0935016,24.8715073 C58.7175845,24.8715073 58.4784025,24.8084848 58.3671746,24.6828572 C58.2597099,24.5551428 58.2024233,24.3080613 58.2024233,23.9341001 L58.2024233,21.2896603 L56.6385412,21.2896603 L56.6385412,23.9520469 C56.6385412,24.43035 56.7021001,24.7696697 56.8254544,24.962076 C56.952154,25.1582387 57.155375,25.3080736 57.4426443,25.4128328 C57.7294954,25.5184268 58.0978858,25.5714324 58.5486518,25.5714324 C59.4259311,25.5714324 60.0661192,25.3251857 60.4696342,24.834779 L60.4696342,25.5693456 L61.8971994,25.5693456 L61.8971994,21.2896603 L60.3420984,21.2896603 L60.3420984,23.2850938 Z M50.1627312,25.5769417 L51.8533129,25.5769417 L51.8533129,22.9892638 L55.0400363,22.9892638 L55.0400363,22.2354983 L51.8533129,22.2354983 L51.8533129,20.6240428 L55.8345218,20.6240428 L55.8345218,19.871112 L50.1627312,19.871112 L50.1627312,25.5769417 Z M42.5568282,24.697799 C42.405876,24.6293507 42.3159737,24.5429557 42.2858668,24.4352749 C42.2553419,24.3284289 42.2423792,24.1113978 42.2423792,23.7837644 L42.2423792,21.9882499 L43.6854159,21.9882499 L43.6854159,21.2895769 L42.2423792,21.2895769 L42.2423792,19.8713625 L40.7332748,19.8734493 L40.7349474,21.2895769 L39.726787,21.2895769 L39.726787,21.9882499 L40.7069313,21.9882499 L40.7069313,23.8417785 C40.7069313,24.2866921 40.7520916,24.6168297 40.8353035,24.8346955 C40.9193517,25.0492223 41.1171368,25.2220124 41.4240591,25.3480574 C41.7334903,25.473685 42.1796567,25.5379596 42.7650671,25.5379596 C43.1221674,25.5379596 43.513138,25.5120828 43.9329609,25.4632508 L43.9329609,24.7708383 C43.6983785,24.7908719 43.4880489,24.8013061 43.3040628,24.8013061 C42.9544892,24.8013061 42.7048534,24.7654125 42.5568282,24.697799 M38.4790265,23.5157728 C38.1302892,23.3379743 37.5611866,23.17854 36.7671192,23.0374698 C36.1219133,22.9256153 35.7104534,22.8304555 35.5323214,22.7569989 C35.3512623,22.6802033 35.2605237,22.5633404 35.2605237,22.4030713 C35.2605237,22.2628359 35.3512623,22.1447209 35.5273036,22.0458048 C35.7062719,21.9506451 35.9383453,21.9030652 36.2272872,21.9030652 C36.8553489,21.9030652 37.2818622,22.1046536 37.506409,22.5120042 L38.7282441,22.3358752 C38.3615263,21.6413758 37.5486421,21.2937088 36.2887553,21.2937088 C35.5444478,21.2937088 34.9377117,21.4151627 34.4698015,21.6564011 C34.001055,21.8976394 33.7660546,22.1918834 33.7660546,22.5357942 C33.7660546,22.7469821 33.8622291,22.9347974 34.056669,23.1034138 C34.2519452,23.2703608 34.5007446,23.3972405 34.802231,23.485305 C35.1037174,23.5754563 35.5494656,23.6681119 36.1457479,23.7695322 C36.7625196,23.8767956 37.1405274,23.9803027 37.2743355,24.0808883 C37.4081436,24.1818912 37.4746295,24.2803899 37.4746295,24.3813928 C37.4746295,24.5308103 37.3797094,24.65769 37.1827606,24.764536 C36.9820485,24.8705474 36.6839073,24.923553 36.2803923,24.923553 C35.486743,24.923553 35.0071246,24.6914968 34.8348467,24.2265495 L33.5126555,24.3588549 C33.7267484,25.1451751 34.632462,25.5379178 36.2339776,25.5379178 C37.0824046,25.5379178 37.7560447,25.4143771 38.2544798,25.1664608 C38.7516605,24.9202141 39.0017144,24.6163706 39.0017144,24.2599389 C39.0017144,23.9410702 38.8294365,23.6935713 38.4790265,23.5157728 M32.3545882,22.3264427 C32.1756199,22.0184255 31.867025,21.7680051 31.4283853,21.5801898 C30.9889094,21.3898702 30.4474047,21.2934584 29.8030351,21.2934584 C28.8860315,21.2934584 28.1534322,21.4833605 27.6056553,21.8631649 C27.056624,22.2421345 26.7823174,22.7809558 26.7823174,23.4725335 C26.7823174,24.1507556 27.0524425,24.6628653 27.596456,25.0122019 C28.1413059,25.3627905 28.8688874,25.53725 29.7829639,25.53725 C31.2749242,25.53725 32.2073993,25.1094485 32.5791349,24.2517585 L31.1590965,24.1515903 C30.9726015,24.6570222 30.5335437,24.9082774 29.8335601,24.9082774 C29.4145735,24.9082774 29.0675088,24.8168739 28.7906933,24.634067 C28.5142959,24.4516774 28.37547,24.086481 28.37547,23.5376429 L32.6485479,23.5376429 C32.63224,23.0372194 32.5352292,22.6344598 32.3545882,22.3264427 L32.3545882,22.3264427 Z M28.4139398,22.9729448 C28.4933884,22.2600813 28.9408092,21.9032321 29.7524389,21.9032321 C30.6201008,21.9032321 31.0553953,22.2600813 31.0553953,22.9729448 L28.4139398,22.9729448 Z M17.6762584,22.301192 L17.6846214,21.2936671 L16.3072343,21.2936671 L16.3072343,25.5391282 L17.8732072,25.5391282 L17.8648442,23.4101371 C17.8648442,22.5883407 18.4197296,22.1780686 19.5315913,22.1780686 C19.611458,22.1780686 19.7168318,22.1822422 19.8464584,22.1905896 L19.8464584,21.2978407 C19.7373212,21.2903281 19.6432374,21.2849023 19.5629525,21.2849023 C18.7249793,21.2849023 18.095245,21.6254741 17.6762584,22.301192 M14.3233202,22.9435204 C14.3233202,22.5365872 14.2693789,22.2335784 14.1644231,22.0357463 C14.0603037,21.8349926 13.8039776,21.6622025 13.3992081,21.5157065 C12.9919297,21.37088 12.4483343,21.297006 11.7709308,21.297006 C11.0128243,21.297006 10.3722181,21.3980089 9.85120283,21.5975105 C9.33060571,21.7982642 9.01782929,22.0787351 8.91998212,22.4389232 L10.4228143,22.538674 C10.5591313,22.1175503 10.9676641,21.9067798 11.6509217,21.9067798 C12.0707446,21.9067798 12.3613591,21.9802364 12.5227651,22.1267324 C12.6837529,22.2736457 12.7640378,22.4919289 12.7640378,22.7790776 L12.7640378,22.9435204 C12.617267,22.9405988 12.5068754,22.9405988 12.4349535,22.9405988 C11.0379134,22.9405988 10.0590235,23.0674785 9.49075727,23.3237421 C8.92709067,23.580423 8.64358477,23.9289248 8.64358477,24.3692474 C8.64358477,24.7286007 8.83718836,25.0132453 9.22314108,25.2235984 C9.60867565,25.4331169 10.1213279,25.5374587 10.7602616,25.5374587 C11.7027723,25.5374587 12.4136278,25.2811951 12.8848832,24.765329 C12.8848832,25.0670857 12.9179171,25.398058 12.9818941,25.5437192 L14.4558739,25.5437192 C14.3647171,25.3563213 14.3233202,24.878853 14.3233202,24.3220849 L14.3233202,22.9435204 Z M12.7640378,23.6647312 C12.7640378,24.0553871 12.617267,24.3646563 12.3216348,24.5896174 C12.0243299,24.8129089 11.6764289,24.924346 11.2833676,24.924346 C10.6088912,24.924346 10.2739528,24.7190013 10.2739528,24.3041381 C10.2739528,23.7361011 10.9517744,23.4514565 12.3086721,23.4514565 C12.4157186,23.4514565 12.5645801,23.4572996 12.7640378,23.4685686 L12.7640378,23.6647312 Z M5.19668825,22.1059475 L2.18935132,22.1059475 L2.18935132,19.8655193 L0.498351523,19.8655193 L0.498351523,25.5375422 L2.18935132,25.5375422 L2.18935132,22.9001976 L5.19668825,22.9001976 L5.19668825,25.5375422 L6.88768805,25.5375422 L6.88768805,19.8655193 L5.19668825,19.8655193 L5.19668825,22.1059475 Z M23.3831736,24.2636952 L21.9702438,21.2928741 L20.4381411,21.2928741 L22.5957966,25.5395873 L23.9811286,25.5395873 L26.1174584,21.2928741 L24.7651604,21.2928741 L23.3831736,24.2636952 Z" id="形状结合" fill="#9C9D9F" mask="url(#mask-2)"></path>
            </g>
        </g>
    </g>
</svg>